<svg xmlns="http://www.w3.org/2000/svg" version="1.1" viewBox="0.00 0.00 16.00 15.00">
<g stroke-width="2.00" fill="none" stroke-linecap="butt">

<path stroke="#a8a5e8" vector-effect="non-scaling-stroke" d="
  M 12.55 0.00
  Q 15.43 0.78 16.00 4.10"
/>

<path stroke="#7576da" vector-effect="non-scaling-stroke" d="
  M 2.52 6.81
  Q 2.44 7.00 2.60 7.20"
/>
<path stroke="#a8a5e8" vector-effect="non-scaling-stroke" d="
  M 2.60 7.20
  Q 1.79 9.05 2.18 10.38
  Q 2.33 10.93 2.90 10.88
  L 6.85 10.54
  Q 7.37 10.49 7.58 10.02
  Q 8.15 8.77 7.48 7.26"
/>
<path stroke="#7576da" vector-effect="non-scaling-stroke" d="
  M 7.48 7.26
  Q 7.63 6.20 8.24 6.22"
/>
<path stroke="#a8a5e8" vector-effect="non-scaling-stroke" d="
  M 8.24 6.22
  Q 9.38 6.98 11.25 6.76"
/>
<path stroke="#7576da" vector-effect="non-scaling-stroke" d="
  M 11.25 6.76
  Q 11.22 7.03 11.31 7.29"
/>
<path stroke="#a8a5e8" vector-effect="non-scaling-stroke" d="
  M 11.31 7.29
  Q 9.64 8.27 9.00 9.77
  A 0.92 0.92 0.0 0 0 10.18 10.99
  Q 12.27 10.18 13.63 7.99"
/>
<path stroke="#7576da" vector-effect="non-scaling-stroke" d="
  M 13.63 7.99
  Q 13.82 7.75 13.76 7.01"
/>
<path stroke="#a8a5e8" vector-effect="non-scaling-stroke" d="
  M 13.76 7.01
  Q 15.03 6.18 14.70 4.86
  Q 14.57 4.33 14.02 4.34
  L 8.76 4.45"
/>
<path stroke="#7576da" vector-effect="non-scaling-stroke" d="
  M 8.76 4.45
  L 7.46 4.49"
/>
<path stroke="#a8a5e8" vector-effect="non-scaling-stroke" d="
  M 7.46 4.49
  C 6.28 3.46 4.91 4.65 3.28 3.99
  Q 2.88 3.83 2.83 4.26
  L 2.52 6.81"
/>
<path stroke="#cdd0f1" vector-effect="non-scaling-stroke" d="
  M 7.46 4.49
  Q 7.97 5.51 7.36 6.27
  A 1.09 1.05 18.1 0 1 6.58 6.65
  L 2.52 6.81"
/>
<path stroke="#cdd0f1" vector-effect="non-scaling-stroke" d="
  M 7.48 7.26
  Q 5.03 7.84 2.60 7.20"
/>
<path stroke="#cdd0f1" vector-effect="non-scaling-stroke" d="
  M 13.76 7.01
  Q 12.75 6.57 11.25 6.76"
/>
<path stroke="#cdd0f1" vector-effect="non-scaling-stroke" d="
  M 8.24 6.22
  L 8.76 4.45"
/>
<path stroke="#cdd0f1" vector-effect="non-scaling-stroke" d="
  M 13.63 7.99
  Q 13.02 7.02 11.31 7.29"
/>
</g>

<path fill="#504ad1" d="
  M 6.60 0.00
  L 12.55 0.00
  Q 15.43 0.78 16.00 4.10
  L 16.00 10.52
  Q 15.71 13.96 12.95 15.00
  L 3.47 15.00
  C 1.93 14.22 1.04 13.11 1.02 11.25
  C 0.98 6.71 -0.77 -0.45 6.60 0.00
  Z
  M 2.52 6.81
  Q 2.44 7.00 2.60 7.20
  Q 1.79 9.05 2.18 10.38
  Q 2.33 10.93 2.90 10.88
  L 6.85 10.54
  Q 7.37 10.49 7.58 10.02
  Q 8.15 8.77 7.48 7.26
  Q 7.63 6.20 8.24 6.22
  Q 9.38 6.98 11.25 6.76
  Q 11.22 7.03 11.31 7.29
  Q 9.64 8.27 9.00 9.77
  A 0.92 0.92 0.0 0 0 10.18 10.99
  Q 12.27 10.18 13.63 7.99
  Q 13.82 7.75 13.76 7.01
  Q 15.03 6.18 14.70 4.86
  Q 14.57 4.33 14.02 4.34
  L 8.76 4.45
  L 7.46 4.49
  C 6.28 3.46 4.91 4.65 3.28 3.99
  Q 2.88 3.83 2.83 4.26
  L 2.52 6.81
  Z"
/>

<path fill="#ffffff" d="
  M 7.46 4.49
  Q 7.97 5.51 7.36 6.27
  A 1.09 1.05 18.1 0 1 6.58 6.65
  L 2.52 6.81
  L 2.83 4.26
  Q 2.88 3.83 3.28 3.99
  C 4.91 4.65 6.28 3.46 7.46 4.49
  Z"
/>
<path fill="#ffffff" d="
  M 13.76 7.01
  Q 12.75 6.57 11.25 6.76
  Q 9.38 6.98 8.24 6.22
  L 8.76 4.45
  L 14.02 4.34
  Q 14.57 4.33 14.70 4.86
  Q 15.03 6.18 13.76 7.01
  Z"
/>
<path fill="#9aa1e2" d="
  M 7.46 4.49
  L 8.76 4.45
  L 8.24 6.22
  Q 7.63 6.20 7.48 7.26
  Q 5.03 7.84 2.60 7.20
  Q 2.44 7.00 2.52 6.81
  L 6.58 6.65
  A 1.09 1.05 18.1 0 0 7.36 6.27
  Q 7.97 5.51 7.46 4.49
  Z"
/>
<path fill="#9aa1e2" d="
  M 11.25 6.76
  Q 12.75 6.57 13.76 7.01
  Q 13.82 7.75 13.63 7.99
  Q 13.02 7.02 11.31 7.29
  Q 11.22 7.03 11.25 6.76
  Z"
/>
<path fill="#ffffff" d="
  M 2.60 7.20
  Q 5.03 7.84 7.48 7.26
  Q 8.15 8.77 7.58 10.02
  Q 7.37 10.49 6.85 10.54
  L 2.90 10.88
  Q 2.33 10.93 2.18 10.38
  Q 1.79 9.05 2.60 7.20
  Z"
/>
<path fill="#ffffff" d="
  M 11.31 7.29
  Q 13.02 7.02 13.63 7.99
  Q 12.27 10.18 10.18 10.99
  A 0.92 0.92 0.0 0 1 9.00 9.77
  Q 9.64 8.27 11.31 7.29
  Z"
/>

</svg>
