<svg xmlns:xlink="http://www.w3.org/1999/xlink" xmlns="http://www.w3.org/2000/svg" width="135" height="31" viewBox="0 0 135 31" fill="none">
<path fill-rule="evenodd" clip-rule="evenodd" d="M4.44307 30.3751L126.756 30.3751C129 30.3751 131.127 28.5288 131.483 26.2699L134.833 5.10034C135.19 2.84142 133.651 0.995117 131.406 0.995117L9.09379 0.995152C6.84885 0.995152 4.72281 2.84146 4.36614 5.10038L1.01622 26.2699C0.659551 28.5288 2.19813 30.3751 4.44307 30.3751Z" fill="url(#paint0_linear_6691_15337)"/>
<path fill-rule="evenodd" clip-rule="evenodd" d="M5.22852 26.3885H17.6183C27.0454 26.3885 26.4583 14.7156 20.1372 14.7156H7.22862L5.22852 26.3885ZM20.144 5.54102H8.79867L7.54946 12.8452L20.5604 12.8179C24.5879 12.7359 25.6938 5.54102 20.144 5.54102ZM25.434 12.8179H44.5271L45.831 5.59562C45.8378 5.56832 45.8105 5.54102 45.79 5.54102H26.7514L25.434 12.8179ZM34.281 26.5315H24.26L34.0421 14.722H43.9949C44.0358 14.722 44.0427 14.7562 44.0085 14.7903L34.281 26.5315Z" fill="#FEFEFE"/>
<path d="M50.6605 27.0057C49.2289 27.0057 48.0002 26.7013 46.9857 26.1039C45.9599 25.5065 45.2385 24.6723 44.8214 23.6014C44.393 22.5305 44.3254 21.3018 44.6072 19.9379C44.9003 18.5852 45.4752 17.3677 46.3545 16.2969C47.2224 15.2147 48.3046 14.3805 49.5784 13.7831C50.8409 13.1857 52.1936 12.8926 53.6139 12.8926C54.9215 12.8926 56.0488 13.118 56.9844 13.5802C57.92 14.0424 58.6189 14.7074 59.1036 15.5867L55.688 18.1455C55.0793 17.0972 54.2001 16.5674 53.0728 16.5674C52.1147 16.5674 51.2918 16.8718 50.5816 17.4917C49.8827 18.0892 49.4206 18.9121 49.2064 19.9379C48.9922 20.9749 49.1049 21.7978 49.5558 22.4065C50.0067 23.0152 50.7056 23.3196 51.6525 23.3196C52.791 23.3196 53.8844 22.7898 54.9441 21.7415L57.2775 24.3003C56.432 25.1796 55.4288 25.8446 54.3015 26.3181C53.1856 26.769 51.9681 27.0057 50.6605 27.0057ZM68.1216 24.3454H62.9813L61.5948 26.7013H56.9618L65.698 13.1969H70.1731L73.2393 26.7013H68.5386L68.1216 24.3454ZM67.5579 21.0651L66.9605 17.6721L64.9315 21.0651H67.5579ZM79.4842 27.0057C78.3569 27.0057 77.2973 26.8817 76.2941 26.6337C75.2796 26.3744 74.4792 26.0363 73.8931 25.6192L76.0461 22.2938C76.6097 22.6658 77.2748 22.9702 78.0188 23.1956C78.774 23.421 79.518 23.5338 80.2507 23.5338C80.8707 23.5338 81.3329 23.4661 81.6372 23.3421C81.919 23.2294 82.0994 23.0491 82.1558 22.8011C82.2121 22.5193 82.0769 22.3051 81.7612 22.1698C81.4343 22.0233 80.882 21.8654 80.1042 21.6964C79.1122 21.4822 78.2893 21.2455 77.6581 20.9975C77.0043 20.7495 76.4857 20.3324 76.1025 19.7575C75.7079 19.1939 75.6065 18.4161 75.8094 17.4354C75.9897 16.5899 76.3843 15.8121 77.0042 15.1133C77.6355 14.4256 78.4584 13.8846 79.4842 13.49C80.5213 13.0842 81.7049 12.8926 83.0576 12.8926C83.9819 12.8926 84.8724 12.9828 85.7291 13.1857C86.5746 13.3886 87.3073 13.6817 87.9047 14.0649L85.8419 17.3565C84.6582 16.6914 83.4746 16.3532 82.291 16.3532C81.1187 16.3532 80.4874 16.635 80.3634 17.1987C80.3071 17.4692 80.4311 17.6834 80.7467 17.8074C81.0736 17.9426 81.6147 18.0892 82.3699 18.247C83.3619 18.4386 84.1848 18.6641 84.8386 18.9121C85.4924 19.1713 86.0222 19.5771 86.428 20.1408C86.8226 20.7044 86.924 21.4709 86.7211 22.4516C86.5407 23.2971 86.1462 24.0636 85.5262 24.7625C84.895 25.4501 84.0721 25.9912 83.0463 26.397C82.0205 26.8028 80.8256 27.0057 79.4842 27.0057ZM90.5425 13.1969H95.0965L92.2559 26.7013H87.7018L90.5425 13.1969ZM111.137 13.1969L108.308 26.7013H104.565L100.721 20.5578L99.4252 26.7013H94.9951L97.8245 13.1969H101.578L105.422 19.3291L106.707 13.1969H111.137ZM118.059 27.0057C116.604 27.0057 115.353 26.7013 114.327 26.1039C113.29 25.4952 112.569 24.661 112.129 23.5789C111.712 22.508 111.633 21.3018 111.915 19.9379C112.197 18.5964 112.783 17.379 113.662 16.3081C114.542 15.2372 115.624 14.4031 116.909 13.7944C118.194 13.1857 119.558 12.8926 121.012 12.8926C122.466 12.8926 123.717 13.1857 124.743 13.7944C125.769 14.4031 126.502 15.2372 126.93 16.3081C127.37 17.379 127.437 18.5964 127.155 19.9379C126.874 21.3018 126.287 22.508 125.397 23.5789C124.529 24.661 123.435 25.4952 122.162 26.1039C120.877 26.7013 119.501 27.0057 118.059 27.0057ZM118.825 23.3196C119.389 23.3196 119.93 23.1843 120.448 22.9138C120.956 22.632 121.406 22.2374 121.778 21.7302C122.162 21.2229 122.421 20.6255 122.568 19.9379C122.703 19.2615 122.692 18.6641 122.534 18.1681C122.376 17.6496 122.094 17.255 121.688 16.9845C121.294 16.7027 120.809 16.5674 120.245 16.5674C119.67 16.5674 119.141 16.7027 118.622 16.9845C118.115 17.255 117.664 17.6496 117.292 18.1681C116.909 18.6641 116.649 19.2615 116.503 19.9379C116.356 20.6255 116.368 21.2229 116.537 21.7302C116.695 22.2374 116.976 22.632 117.382 22.9138C117.777 23.1843 118.25 23.3196 118.825 23.3196Z" fill="#FEFEFE"/>
<defs>
<linearGradient id="paint0_linear_6691_15337" x1="12.0586" y1="-2.86196" x2="31.9164" y2="57.8568" gradientUnits="userSpaceOnUse">
<stop stop-color="#7A74FB"/>
<stop offset="1" stop-color="#2721A7"/>
</linearGradient>
</defs>
</svg>